<?xml version="1.0" encoding="UTF-8"?><svg id="a" xmlns="http://www.w3.org/2000/svg" width="98" height="48" viewBox="0 0 98 48"><path d="M6.72,46.47l-.16-1.3c-.89.82-1.87,1.59-3.16,1.59-1.68,0-3.02-1.32-3.02-2.93,0-2.93,3.27-3.56,5.68-4.17l.49-.13v-.57c0-1.17-.85-1.8-2.07-1.8s-2.03.74-2.66,1.61l-1.08-.76c.91-1.22,2.09-2.08,3.75-2.08,1.48,0,3.61.85,3.61,3.19v5.08c.02.76-.02,1.54.3,2.26h-1.68ZM5.95,40.89c-1.46.41-4.12.96-4.12,2.8,0,.85.71,1.71,1.64,1.71,1.22,0,2.35-.8,3.1-1.67v-3l-.61.17Z"/><path d="M14.28,38.44h.04c.61-1.22,1.4-2.36,3.02-2.36h.59v1.32c-2.01-.26-3.06,1.78-3.65,3.26v5.8h-1.54v-10.24h1.54v2.21Z"/><path d="M23.35,40.98l4.04-4.75h1.72l-3,3.5,3.45,6.73h-1.66l-2.78-5.56-1.77,2.06v3.5h-1.54v-14.43h1.54v8.94Z"/><path d="M34.91,33.64h-1.54v-1.6h1.54v1.6ZM34.91,46.47h-1.54v-10.24h1.54v10.24Z"/><path d="M41.68,36.23h2.47v1.22h-2.47v6.43c0,1-.02,1.65,1.24,1.65.43,0,.85-.04,1.22-.13v1.06c-.49.17-1.01.3-1.54.3-2.6,0-2.47-1.65-2.47-3.52v-5.79h-1.66v-1.22h1.66v-3.32h1.54v3.32Z"/><path d="M49.02,41.59c0,2.93,1.32,3.95,2.9,3.95,1.14,0,2.11-.87,2.66-1.76l1.1.69c-.59,1.32-2.05,2.3-3.93,2.3-2.43,0-4.36-1.58-4.36-5.42s1.93-5.42,4.36-5.42c3.14,0,4.04,3.15,3.83,5.66h-6.57ZM53.97,40.37c.04-1.32-.71-3.21-2.33-3.21-1.74,0-2.56,1.76-2.58,3.21h4.91Z"/><path d="M61.55,40.98l4.04-4.75h1.72l-3,3.5,3.45,6.73h-1.66l-2.78-5.56-1.77,2.06v3.5h-1.54v-14.43h1.54v8.94Z"/><path d="M73.7,36.23h2.47v1.22h-2.47v6.43c0,1-.02,1.65,1.24,1.65.43,0,.85-.04,1.22-.13v1.06c-.49.17-1.01.3-1.54.3-2.6,0-2.47-1.65-2.47-3.52v-5.79h-1.66v-1.22h1.66v-3.32h1.54v3.32Z"/><path d="M81.04,41.59c0,2.93,1.32,3.95,2.9,3.95,1.14,0,2.11-.87,2.66-1.76l1.1.69c-.59,1.32-2.05,2.3-3.93,2.3-2.43,0-4.36-1.58-4.36-5.42s1.93-5.42,4.36-5.42c3.14,0,4.04,3.15,3.83,5.66h-6.57ZM85.99,40.37c.04-1.32-.71-3.21-2.33-3.21-1.74,0-2.56,1.76-2.58,3.21h4.91Z"/><path d="M93.56,38.44h.04c.61-1.22,1.4-2.36,3.02-2.36h.59v1.32c-2.01-.26-3.06,1.78-3.65,3.26v5.8h-1.54v-10.24h1.54v2.21Z"/><polygon points="16.73 1 16.73 11 6.73 11 6.73 1 .73 1 .73 28 6.73 28 6.73 16 16.73 16 16.73 28 22.73 28 22.73 1 16.73 1"/><path d="M43.22,15.71c2.91-1.11,4.87-3.85,4.87-6.79,0-3.43-2.58-7.87-9.18-7.87h-5.18v-.05h-6v27h6v-11.18h4l5.16,11.19h6.05l-5.72-12.3ZM35.85,12.24h-2.12v-6.62h1.75c2.84,0,6.71-.31,6.71,3.4,0,3.36-3.83,3.22-6.34,3.22Z"/><path d="M92.94,14.07c2.32-1.21,3.61-3.04,3.61-5.57,0-4.36-2.35-7.4-11.63-7.4h-2.19v-.1h-6v27h1s10.13,0,10.13,0c5.22,0,9.24-3.11,9.24-7.75,0-2.7-1.55-5.01-4.16-6.19ZM90.66,8.78c0,3.61-3.82,3.27-7.93,3.25v-6.68c3.95-.02,7.93-.32,7.93,3.42ZM86.13,23.75h-3.4v-7.66c5.36-.34,8.48.19,8.48,3.79,0,4.08-3.35,3.87-5.08,3.87Z"/><polygon points="72.73 1 64.73 1 58.73 1 50.73 1 50.73 6 58.73 6 58.73 28 64.73 28 64.73 6 72.73 6 72.73 1"/></svg>